<mxfile host="Electron" modified="2023-06-01T23:04:23.146Z" agent="Mozilla/5.0 (Macintosh; Intel Mac OS X 10_15_7) AppleWebKit/537.36 (KHTML, like Gecko) draw.io/21.2.8 Chrome/112.0.5615.165 Electron/24.2.0 Safari/537.36" etag="uBCPtLkcstXEdptDl_Rf" version="21.2.8" type="device">
  <diagram name="Page-1" id="Wq4Do5I3OYUfETPqNtvG">
    <mxGraphModel dx="1306" dy="894" grid="1" gridSize="10" guides="1" tooltips="1" connect="1" arrows="1" fold="1" page="1" pageScale="1" pageWidth="850" pageHeight="1100" math="1" shadow="0">
      <root>
        <mxCell id="0" />
        <mxCell id="1" parent="0" />
        <mxCell id="KTotQX96QJNwi4MtBs4v-1" value="" style="rounded=0;whiteSpace=wrap;html=1;fontSize=16;" parent="1" vertex="1">
          <mxGeometry x="81.5" y="330" width="308.5" height="490" as="geometry" />
        </mxCell>
        <mxCell id="KTotQX96QJNwi4MtBs4v-2" value="&lt;font style=&quot;font-size: 16px;&quot;&gt;$$then(promise, onFulfilled,[onRejected]) \rightarrow promise&#39;$$&lt;/font&gt;" style="rounded=0;whiteSpace=wrap;html=1;" parent="1" vertex="1">
          <mxGeometry x="163.75" y="70" width="522.5" height="40" as="geometry" />
        </mxCell>
        <mxCell id="KTotQX96QJNwi4MtBs4v-3" value="promise" style="rounded=0;whiteSpace=wrap;html=1;fontSize=16;fontFamily=SF Mono;" parent="1" vertex="1">
          <mxGeometry x="365" y="180" width="120" height="40" as="geometry" />
        </mxCell>
        <mxCell id="KTotQX96QJNwi4MtBs4v-4" value="promise_reactions[0]" style="text;html=1;strokeColor=none;fillColor=none;align=center;verticalAlign=middle;whiteSpace=wrap;rounded=0;fontSize=16;fontFamily=SF Mono;" parent="1" vertex="1">
          <mxGeometry x="132" y="350" width="210" height="30" as="geometry" />
        </mxCell>
        <mxCell id="KTotQX96QJNwi4MtBs4v-5" value="&lt;font style=&quot;font-size: 14px;&quot;&gt;JSPromiseReactionData&lt;br&gt;&lt;/font&gt;" style="rounded=0;whiteSpace=wrap;html=1;fontSize=16;fontFamily=SF Mono;" parent="1" vertex="1">
          <mxGeometry x="109" y="500" width="251" height="40" as="geometry" />
        </mxCell>
        <mxCell id="KTotQX96QJNwi4MtBs4v-6" value="" style="rounded=0;whiteSpace=wrap;html=1;fontSize=16;" parent="1" vertex="1">
          <mxGeometry x="109" y="590" width="251" height="200" as="geometry" />
        </mxCell>
        <mxCell id="KTotQX96QJNwi4MtBs4v-7" value="" style="shape=image;html=1;verticalAlign=top;verticalLabelPosition=bottom;labelBackgroundColor=#ffffff;imageAspect=0;aspect=fixed;image=https://cdn1.iconfinder.com/data/icons/material-core/16/more-vert-128.png;fontSize=16;" parent="1" vertex="1">
          <mxGeometry x="227" y="555" width="20" height="20" as="geometry" />
        </mxCell>
        <mxCell id="KTotQX96QJNwi4MtBs4v-8" value="" style="endArrow=classic;html=1;rounded=0;fontSize=14;exitX=0.5;exitY=1;exitDx=0;exitDy=0;entryX=0.5;entryY=0;entryDx=0;entryDy=0;" parent="1" source="KTotQX96QJNwi4MtBs4v-3" target="KTotQX96QJNwi4MtBs4v-1" edge="1">
          <mxGeometry width="50" height="50" relative="1" as="geometry">
            <mxPoint x="474" y="460" as="sourcePoint" />
            <mxPoint x="524" y="410" as="targetPoint" />
          </mxGeometry>
        </mxCell>
        <mxCell id="KTotQX96QJNwi4MtBs4v-9" value="fulfilled" style="edgeLabel;html=1;align=center;verticalAlign=middle;resizable=0;points=[];fontSize=14;fontFamily=SF Mono;" parent="KTotQX96QJNwi4MtBs4v-8" connectable="0" vertex="1">
          <mxGeometry x="-0.116" y="1" relative="1" as="geometry">
            <mxPoint as="offset" />
          </mxGeometry>
        </mxCell>
        <mxCell id="KTotQX96QJNwi4MtBs4v-10" value="rejected" style="endArrow=classic;html=1;rounded=0;fontSize=14;exitX=0.5;exitY=1;exitDx=0;exitDy=0;entryX=0.5;entryY=0;entryDx=0;entryDy=0;fontFamily=SF Mono;" parent="1" source="KTotQX96QJNwi4MtBs4v-3" target="KTotQX96QJNwi4MtBs4v-15" edge="1">
          <mxGeometry width="50" height="50" relative="1" as="geometry">
            <mxPoint x="474" y="460" as="sourcePoint" />
            <mxPoint x="614" y="330" as="targetPoint" />
          </mxGeometry>
        </mxCell>
        <mxCell id="KTotQX96QJNwi4MtBs4v-11" value="JSPromiseReactionData" style="text;html=1;strokeColor=none;fillColor=none;align=center;verticalAlign=middle;whiteSpace=wrap;rounded=0;fontSize=14;fontFamily=SF Mono;" parent="1" vertex="1">
          <mxGeometry x="134" y="600" width="201" height="30" as="geometry" />
        </mxCell>
        <mxCell id="KTotQX96QJNwi4MtBs4v-12" value="$$handler:onFulfilled$$" style="text;html=1;strokeColor=none;fillColor=none;align=center;verticalAlign=middle;whiteSpace=wrap;rounded=0;fontSize=14;" parent="1" vertex="1">
          <mxGeometry x="149" y="740" width="171" height="30" as="geometry" />
        </mxCell>
        <mxCell id="KTotQX96QJNwi4MtBs4v-13" value="&lt;font style=&quot;font-size: 12px;&quot;&gt;$$$$\begin{equation}&amp;nbsp; &amp;nbsp;resolving\_funcs =&amp;nbsp; \begin{cases}&amp;nbsp; Resolve_{promise&#39;}\\ Reject_{promise&#39;} \end{cases}&amp;nbsp; &amp;nbsp; &amp;nbsp; &amp;nbsp;\end{equation}$$$$&lt;/font&gt;" style="text;html=1;strokeColor=none;fillColor=none;align=center;verticalAlign=middle;whiteSpace=wrap;rounded=0;fontSize=14;" parent="1" vertex="1">
          <mxGeometry x="114.5" y="660" width="240" height="50" as="geometry" />
        </mxCell>
        <mxCell id="KTotQX96QJNwi4MtBs4v-14" value="&lt;font style=&quot;font-size: 14px;&quot;&gt;JSPromiseReactionData&lt;br&gt;&lt;/font&gt;" style="rounded=0;whiteSpace=wrap;html=1;fontSize=16;fontFamily=SF Mono;" parent="1" vertex="1">
          <mxGeometry x="109" y="430" width="251" height="40" as="geometry" />
        </mxCell>
        <mxCell id="KTotQX96QJNwi4MtBs4v-15" value="" style="rounded=0;whiteSpace=wrap;html=1;fontSize=16;" parent="1" vertex="1">
          <mxGeometry x="460" y="330" width="308.5" height="490" as="geometry" />
        </mxCell>
        <mxCell id="KTotQX96QJNwi4MtBs4v-16" value="promise_reactions[1]" style="text;html=1;strokeColor=none;fillColor=none;align=center;verticalAlign=middle;whiteSpace=wrap;rounded=0;fontSize=16;fontFamily=SF Mono;" parent="1" vertex="1">
          <mxGeometry x="510.5" y="350" width="210" height="30" as="geometry" />
        </mxCell>
        <mxCell id="KTotQX96QJNwi4MtBs4v-17" value="&lt;font style=&quot;font-size: 14px;&quot;&gt;JSPromiseReactionData&lt;br&gt;&lt;/font&gt;" style="rounded=0;whiteSpace=wrap;html=1;fontSize=16;fontFamily=SF Mono;" parent="1" vertex="1">
          <mxGeometry x="487.5" y="500" width="251" height="40" as="geometry" />
        </mxCell>
        <mxCell id="KTotQX96QJNwi4MtBs4v-18" value="" style="rounded=0;whiteSpace=wrap;html=1;fontSize=16;" parent="1" vertex="1">
          <mxGeometry x="487.5" y="590" width="251" height="200" as="geometry" />
        </mxCell>
        <mxCell id="KTotQX96QJNwi4MtBs4v-19" value="" style="shape=image;html=1;verticalAlign=top;verticalLabelPosition=bottom;labelBackgroundColor=#ffffff;imageAspect=0;aspect=fixed;image=https://cdn1.iconfinder.com/data/icons/material-core/16/more-vert-128.png;fontSize=16;" parent="1" vertex="1">
          <mxGeometry x="605.5" y="555" width="20" height="20" as="geometry" />
        </mxCell>
        <mxCell id="KTotQX96QJNwi4MtBs4v-20" value="JSPromiseReactionData" style="text;html=1;strokeColor=none;fillColor=none;align=center;verticalAlign=middle;whiteSpace=wrap;rounded=0;fontSize=14;fontFamily=SF Mono;" parent="1" vertex="1">
          <mxGeometry x="512.5" y="600" width="201" height="30" as="geometry" />
        </mxCell>
        <mxCell id="KTotQX96QJNwi4MtBs4v-21" value="$$handler:&amp;nbsp;onRejected$$" style="text;html=1;strokeColor=none;fillColor=none;align=center;verticalAlign=middle;whiteSpace=wrap;rounded=0;fontSize=14;" parent="1" vertex="1">
          <mxGeometry x="527.5" y="740" width="171" height="30" as="geometry" />
        </mxCell>
        <mxCell id="KTotQX96QJNwi4MtBs4v-22" value="&lt;font style=&quot;font-size: 12px;&quot;&gt;$$$$\begin{equation}&amp;nbsp; &amp;nbsp;resolving\_funcs =&amp;nbsp; \begin{cases}&amp;nbsp; Resolve_{promise&#39;}\\ Reject_{promise&#39;} \end{cases}&amp;nbsp; &amp;nbsp; &amp;nbsp; &amp;nbsp;\end{equation}$$$$&lt;/font&gt;" style="text;html=1;strokeColor=none;fillColor=none;align=center;verticalAlign=middle;whiteSpace=wrap;rounded=0;fontSize=14;" parent="1" vertex="1">
          <mxGeometry x="493" y="660" width="240" height="50" as="geometry" />
        </mxCell>
        <mxCell id="KTotQX96QJNwi4MtBs4v-23" value="&lt;font style=&quot;font-size: 14px;&quot;&gt;JSPromiseReactionData&lt;br&gt;&lt;/font&gt;" style="rounded=0;whiteSpace=wrap;html=1;fontSize=16;fontFamily=SF Mono;" parent="1" vertex="1">
          <mxGeometry x="487.5" y="430" width="251" height="40" as="geometry" />
        </mxCell>
        <mxCell id="KTotQX96QJNwi4MtBs4v-24" value="" style="endArrow=classic;html=1;rounded=0;exitX=0.5;exitY=1;exitDx=0;exitDy=0;entryX=0.5;entryY=0;entryDx=0;entryDy=0;" parent="1" source="KTotQX96QJNwi4MtBs4v-14" target="KTotQX96QJNwi4MtBs4v-5" edge="1">
          <mxGeometry width="50" height="50" relative="1" as="geometry">
            <mxPoint x="400" y="540" as="sourcePoint" />
            <mxPoint x="450" y="490" as="targetPoint" />
          </mxGeometry>
        </mxCell>
        <mxCell id="KTotQX96QJNwi4MtBs4v-25" value="" style="endArrow=classic;html=1;rounded=0;exitX=0.5;exitY=1;exitDx=0;exitDy=0;entryX=0.5;entryY=0;entryDx=0;entryDy=0;" parent="1" source="KTotQX96QJNwi4MtBs4v-23" target="KTotQX96QJNwi4MtBs4v-17" edge="1">
          <mxGeometry width="50" height="50" relative="1" as="geometry">
            <mxPoint x="400" y="540" as="sourcePoint" />
            <mxPoint x="450" y="490" as="targetPoint" />
          </mxGeometry>
        </mxCell>
      </root>
    </mxGraphModel>
  </diagram>
</mxfile>
